<svg width="960" height="640" viewBox="0 0 960 640" fill="none" xmlns="http://www.w3.org/2000/svg" role="img" aria-labelledby="title desc">
  <title id="title">Vietnam local experience</title>
  <desc id="desc">Stylized craft table with lanterns, coffee, and local experience elements.</desc>
  <defs>
    <linearGradient id="bg" x1="0" y1="0" x2="960" y2="640" gradientUnits="userSpaceOnUse">
      <stop stop-color="#FDF4FF"/>
      <stop offset="0.55" stop-color="#DDD6FE"/>
      <stop offset="1" stop-color="#FBCFE8"/>
    </linearGradient>
  </defs>
  <rect width="960" height="640" rx="36" fill="url(#bg)"/>
  <circle cx="218" cy="160" r="58" fill="#F472B6" opacity="0.3"/>
  <circle cx="740" cy="142" r="80" fill="#8B5CF6" opacity="0.22"/>
  <path d="M0 456C117 418 260 448 379 418C528 381 692 412 960 368V640H0V456Z" fill="#312E81" opacity="0.12"/>
  <rect x="200" y="380" width="560" height="86" rx="30" fill="#7C3AED"/>
  <rect x="236" y="286" width="166" height="128" rx="26" fill="#FDF2F8"/>
  <path d="M319 216V286" stroke="#7C3AED" stroke-width="14" stroke-linecap="round"/>
  <path d="M263 318C299 271 339 271 375 318C344 359 298 359 263 318Z" fill="#FB7185"/>
  <rect x="444" y="242" width="154" height="174" rx="28" fill="#FFFFFF"/>
  <rect x="476" y="276" width="90" height="96" rx="45" fill="#92400E"/>
  <path d="M496 300C524 284 546 291 561 318" stroke="#FDE68A" stroke-width="13" stroke-linecap="round"/>
  <rect x="634" y="300" width="102" height="116" rx="26" fill="#ECFEFF"/>
  <path d="M685 230V300" stroke="#0EA5E9" stroke-width="14" stroke-linecap="round"/>
  <path d="M649 338H721" stroke="#0EA5E9" stroke-width="15" stroke-linecap="round"/>
  <path d="M662 374H708" stroke="#0EA5E9" stroke-width="15" stroke-linecap="round"/>
  <circle cx="276" cy="466" r="30" fill="#FDE68A"/>
  <circle cx="684" cy="466" r="30" fill="#FDE68A"/>
</svg>
