<svg width="960" height="640" viewBox="0 0 960 640" fill="none" xmlns="http://www.w3.org/2000/svg" role="img" aria-labelledby="title desc">
  <title id="title">Vietnam seaside hotel</title>
  <desc id="desc">Stylized resort at sunset with ocean, palms, and warm hotel windows.</desc>
  <defs>
    <linearGradient id="sky" x1="0" y1="0" x2="960" y2="640" gradientUnits="userSpaceOnUse">
      <stop stop-color="#0F5B8C"/>
      <stop offset="0.45" stop-color="#3B82F6"/>
      <stop offset="1" stop-color="#FDBA74"/>
    </linearGradient>
    <linearGradient id="sea" x1="0" y1="400" x2="960" y2="640" gradientUnits="userSpaceOnUse">
      <stop stop-color="#0EA5E9"/>
      <stop offset="1" stop-color="#0369A1"/>
    </linearGradient>
  </defs>
  <rect width="960" height="640" rx="36" fill="url(#sky)"/>
  <circle cx="760" cy="150" r="70" fill="#FDE68A" opacity="0.9"/>
  <path d="M0 415C128 374 223 438 354 403C507 361 614 384 739 419C835 446 901 426 960 397V640H0V415Z" fill="url(#sea)"/>
  <path d="M0 515C150 488 249 535 408 505C582 472 726 505 960 476V640H0V515Z" fill="#075985" opacity="0.35"/>
  <rect x="256" y="216" width="448" height="264" rx="22" fill="#F8FAFC"/>
  <rect x="296" y="258" width="72" height="70" rx="10" fill="#DBEAFE"/>
  <rect x="404" y="258" width="72" height="70" rx="10" fill="#DBEAFE"/>
  <rect x="512" y="258" width="72" height="70" rx="10" fill="#DBEAFE"/>
  <rect x="620" y="258" width="44" height="222" rx="14" fill="#0F172A"/>
  <rect x="296" y="362" width="72" height="70" rx="10" fill="#BFDBFE"/>
  <rect x="404" y="362" width="72" height="70" rx="10" fill="#BFDBFE"/>
  <rect x="512" y="362" width="72" height="70" rx="10" fill="#BFDBFE"/>
  <path d="M222 498H738" stroke="#F8FAFC" stroke-width="28" stroke-linecap="round"/>
  <path d="M164 500C196 444 233 423 279 416" stroke="#166534" stroke-width="18" stroke-linecap="round"/>
  <path d="M177 421C148 383 111 368 66 376" stroke="#22C55E" stroke-width="20" stroke-linecap="round"/>
  <path d="M186 414C214 368 252 346 304 344" stroke="#22C55E" stroke-width="20" stroke-linecap="round"/>
</svg>
