<svg width="960" height="640" viewBox="0 0 960 640" fill="none" xmlns="http://www.w3.org/2000/svg" role="img" aria-labelledby="title desc">
  <title id="title">Vietnam dining experience</title>
  <desc id="desc">Stylized restaurant table with dishes and city lights.</desc>
  <defs>
    <linearGradient id="bg" x1="0" y1="0" x2="960" y2="640" gradientUnits="userSpaceOnUse">
      <stop stop-color="#431407"/>
      <stop offset="0.55" stop-color="#9A3412"/>
      <stop offset="1" stop-color="#FED7AA"/>
    </linearGradient>
  </defs>
  <rect width="960" height="640" rx="36" fill="url(#bg)"/>
  <circle cx="170" cy="128" r="56" fill="#FDE68A" opacity="0.35"/>
  <circle cx="720" cy="104" r="26" fill="#FDE68A" opacity="0.45"/>
  <circle cx="810" cy="180" r="18" fill="#FDE68A" opacity="0.45"/>
  <rect x="0" y="392" width="960" height="248" fill="#111827" opacity="0.2"/>
  <ellipse cx="480" cy="408" rx="292" ry="116" fill="#FFF7ED"/>
  <ellipse cx="480" cy="408" rx="214" ry="76" fill="#FED7AA"/>
  <circle cx="480" cy="408" r="96" fill="#FFFFFF"/>
  <circle cx="480" cy="408" r="62" fill="#F97316"/>
  <path d="M425 384C461 356 508 356 542 384" stroke="#7C2D12" stroke-width="18" stroke-linecap="round"/>
  <path d="M407 421C454 452 511 452 555 421" stroke="#7C2D12" stroke-width="18" stroke-linecap="round"/>
  <rect x="252" y="256" width="46" height="226" rx="23" fill="#F8FAFC"/>
  <rect x="672" y="256" width="46" height="226" rx="23" fill="#F8FAFC"/>
  <path d="M228 252V370" stroke="#F8FAFC" stroke-width="15" stroke-linecap="round"/>
  <path d="M254 252V370" stroke="#F8FAFC" stroke-width="15" stroke-linecap="round"/>
  <path d="M280 252V370" stroke="#F8FAFC" stroke-width="15" stroke-linecap="round"/>
  <path d="M706 250C758 285 758 339 706 374" stroke="#F8FAFC" stroke-width="16" stroke-linecap="round"/>
</svg>
